<svg width="131" height="112" viewBox="0 0 131 112" fill="none" xmlns="http://www.w3.org/2000/svg">
<rect x="12.1614" y="18.6934" width="95.0872" height="2.47235" rx="1.23617" transform="rotate(-10 12.1614 18.6934)" fill="#020202"/>
<rect x="20.7479" y="67.3892" width="45.7384" height="2.4698" rx="1.2349" transform="rotate(-100 20.7479 67.3892)" fill="#020202"/>
<rect x="111.958" y="51.3063" width="45.7384" height="2.4698" rx="1.2349" transform="rotate(-100 111.958 51.3063)" fill="#020202"/>
<rect width="18.5347" height="2.47085" rx="1.23543" transform="matrix(0.49956 -0.866279 0.865771 0.50044 11.6969 87.1744)" fill="#020202"/>
<rect width="18.5347" height="2.47085" rx="1.23543" transform="matrix(0.765718 0.643177 -0.642398 0.766371 115.682 54.4155)" fill="#020202"/>
<rect x="20.9625" y="68.6066" width="95.0872" height="2.47235" rx="1.23617" transform="rotate(-10 20.9625 68.6066)" fill="#020202"/>
<rect x="12.021" y="89.0118" width="119.785" height="2.47235" rx="1.23617" transform="rotate(-10 12.021 89.0118)" fill="#020202"/>
<rect x="17.0619" y="21.595" width="86.4429" height="45.7384" transform="rotate(-10 17.0619 21.595)" fill="#030303"/>
<ellipse cx="113.39" cy="68.3135" rx="1.54362" ry="1.54522" transform="rotate(-10 113.39 68.3135)" fill="#090909"/>
<ellipse cx="107.309" cy="69.3857" rx="1.54362" ry="1.54522" transform="rotate(-10 107.309 69.3857)" fill="#090909"/>
<ellipse cx="119.47" cy="67.2413" rx="1.54362" ry="1.54522" transform="rotate(-10 119.47 67.2413)" fill="#090909"/>
<rect x="59.0924" y="75.0633" width="18.5235" height="4.32661" rx="2" transform="rotate(-10 59.0924 75.0633)" fill="black"/>
<path opacity="0.2" d="M25.4071 28.6662C25.5541 29.4997 25.521 30.1442 25.3078 30.5996C25.0945 31.055 24.6853 31.336 24.0801 31.4428C23.4825 31.5481 23.0053 31.4286 22.6484 31.0843C22.2911 30.7375 22.0379 30.1713 21.8888 29.3858L21.7212 28.4356C21.5761 27.6123 21.6106 26.9756 21.8247 26.5253C22.0388 26.075 22.4498 25.7963 23.0576 25.6891C23.6603 25.5829 24.1381 25.6983 24.4911 26.0353C24.8436 26.3698 25.0947 26.939 25.2443 27.743L25.4071 28.6662ZM24.5238 27.8184C24.4176 27.2158 24.2556 26.7921 24.038 26.5476C23.8199 26.3004 23.5274 26.2092 23.1607 26.2739C22.7965 26.3381 22.5553 26.5221 22.437 26.8259C22.3187 27.1297 22.3071 27.5667 22.4024 28.137L22.6032 29.2757C22.7099 29.8809 22.876 30.3131 23.1015 30.5721C23.3291 30.8281 23.6211 30.9247 23.9776 30.8619C24.329 30.7999 24.5653 30.6181 24.6866 30.3164C24.8105 30.0143 24.8248 29.5701 24.7294 28.9841L24.5238 27.8184ZM29.079 30.482L28.3635 30.6081L27.5271 25.8649L26.1852 26.6449L26.0712 25.9987L27.9751 24.8736L28.0866 24.854L29.079 30.482ZM34.255 27.1061C34.402 27.9396 34.3689 28.584 34.1556 29.0394C33.9424 29.4948 33.5332 29.7759 32.9279 29.8826C32.3304 29.988 31.8532 29.8685 31.4963 29.5242C31.139 29.1774 30.8858 28.6112 30.7367 27.8256L30.5691 26.8755C30.424 26.0522 30.4585 25.4155 30.6726 24.9652C30.8867 24.5149 31.2977 24.2362 31.9055 24.129C32.5082 24.0228 32.986 24.1381 33.3389 24.4752C33.6914 24.8097 33.9425 25.3789 34.0922 26.1828L34.255 27.1061ZM33.3717 26.2583C33.2655 25.6556 33.1035 25.232 32.8858 24.9874C32.6677 24.7403 32.3753 24.6491 32.0086 24.7137C31.6444 24.778 31.4032 24.962 31.2849 25.2658C31.1665 25.5696 31.155 26.0066 31.2503 26.5769L31.4511 27.7155C31.5578 28.3208 31.7239 28.7529 31.9494 29.012C32.177 29.268 32.469 29.3646 32.8255 29.3018C33.1769 29.2398 33.4132 29.058 33.5345 28.7563C33.6584 28.4541 33.6727 28.01 33.5773 27.4239L33.3717 26.2583ZM37.9269 28.9219L37.2114 29.048L36.375 24.3048L35.033 25.0848L34.9191 24.4385L36.823 23.3135L36.9345 23.2938L37.9269 28.9219ZM43.1029 25.546C43.2499 26.3795 43.2167 27.0239 43.0035 27.4793C42.7903 27.9347 42.3811 28.2158 41.7758 28.3225C41.1783 28.4279 40.7011 28.3084 40.3442 27.9641C39.9868 27.6172 39.7336 27.051 39.5846 26.2655L39.417 25.3153C39.2719 24.4921 39.3063 23.8553 39.5205 23.4051C39.7346 22.9548 40.1456 22.6761 40.7534 22.5689C41.356 22.4626 41.8339 22.578 42.1868 22.9151C42.5393 23.2496 42.7904 23.8188 42.9401 24.6227L43.1029 25.546ZM42.2196 24.6982C42.1133 24.0955 41.9514 23.6719 41.7337 23.4273C41.5156 23.1802 41.2232 23.089 40.8565 23.1536C40.4923 23.2178 40.2511 23.4019 40.1327 23.7057C40.0144 24.0095 40.0029 24.4465 40.0982 25.0167L40.2989 26.1554C40.4057 26.7607 40.5718 27.1928 40.7973 27.4519C41.0249 27.7079 41.3169 27.8045 41.6734 27.7416C42.0247 27.6797 42.2611 27.4979 42.3824 27.1962C42.5063 26.894 42.5205 26.4499 42.4251 25.8638L42.2196 24.6982ZM46.7748 27.3617L46.0592 27.4879L45.2229 22.7447L43.8809 23.5247L43.767 22.8784L45.6708 21.7534L45.7824 21.7337L46.7748 27.3617ZM51.9508 23.9859C52.0978 24.8194 52.0646 25.4638 51.8514 25.9192C51.6382 26.3746 51.2289 26.6557 50.6237 26.7624C50.0261 26.8678 49.5489 26.7483 49.1921 26.404C48.8347 26.0571 48.5815 25.4909 48.4324 24.7054L48.2649 23.7552C48.1197 22.932 48.1542 22.2952 48.3683 21.8449C48.5825 21.3947 48.9934 21.116 49.6012 21.0088C50.2039 20.9025 50.6818 21.0179 51.0347 21.355C51.3872 21.6895 51.6383 22.2587 51.788 23.0626L51.9508 23.9859ZM51.0675 23.1381C50.9612 22.5354 50.7993 22.1118 50.5816 21.8672C50.3635 21.6201 50.0711 21.5288 49.7044 21.5935C49.3402 21.6577 49.0989 21.8417 48.9806 22.1455C48.8623 22.4493 48.8508 22.8864 48.946 23.4566L49.1468 24.5953C49.2535 25.2005 49.4197 25.6327 49.6451 25.8917C49.8728 26.1478 50.1648 26.2444 50.5213 26.1815C50.8726 26.1196 51.109 25.9377 51.2303 25.636C51.3542 25.3339 51.3684 24.8898 51.273 24.3037L51.0675 23.1381ZM55.6227 25.8016L54.9071 25.9278L54.0708 21.1845L52.7288 21.9646L52.6148 21.3183L54.5187 20.1933L54.6303 20.1736L55.6227 25.8016ZM60.7987 22.4257C60.9456 23.2592 60.9125 23.9037 60.6993 24.3591C60.4861 24.8145 60.0768 25.0956 59.4716 25.2023C58.874 25.3076 58.3968 25.1882 58.0399 24.8439C57.6826 24.497 57.4294 23.9308 57.2803 23.1453L57.1128 22.1951C56.9676 21.3719 57.0021 20.7351 57.2162 20.2848C57.4304 19.8346 57.8413 19.5558 58.4491 19.4487C59.0518 19.3424 59.5296 19.4578 59.8826 19.7948C60.2351 20.1293 60.4862 20.6986 60.6359 21.5025L60.7987 22.4257ZM59.9154 21.578C59.8091 20.9753 59.6471 20.5517 59.4295 20.3071C59.2114 20.06 58.919 19.9687 58.5522 20.0334C58.1881 20.0976 57.9468 20.2816 57.8285 20.5854C57.7102 20.8892 57.6987 21.3262 57.7939 21.8965L57.9947 23.0352C58.1014 23.6404 58.2675 24.0726 58.493 24.3316C58.7206 24.5877 59.0127 24.6842 59.3692 24.6214C59.7205 24.5594 59.9568 24.3776 60.0782 24.0759C60.2021 23.7738 60.2163 23.3297 60.1209 22.7436L59.9154 21.578ZM64.4705 24.2415L63.755 24.3677L62.9186 19.6244L61.5767 20.4045L61.4627 19.7582L63.3666 18.6331L63.4782 18.6135L64.4705 24.2415ZM69.6465 20.8656C69.7935 21.6991 69.7604 22.3436 69.5472 22.799C69.3339 23.2544 68.9247 23.5354 68.3195 23.6422C67.7219 23.7475 67.2447 23.628 66.8878 23.2837C66.5305 22.9369 66.2773 22.3707 66.1282 21.5852L65.9607 20.635C65.8155 19.8117 65.85 19.175 66.0641 18.7247C66.2782 18.2744 66.6892 17.9957 67.297 17.8885C67.8997 17.7823 68.3775 17.8977 68.7305 18.2347C69.083 18.5692 69.3341 19.1384 69.4838 19.9424L69.6465 20.8656ZM68.7633 20.0178C68.657 19.4152 68.495 18.9915 68.2774 18.747C68.0593 18.4998 67.7669 18.4086 67.4001 18.4733C67.0359 18.5375 66.7947 18.7215 66.6764 19.0253C66.5581 19.3291 66.5465 19.7661 66.6418 20.3364L66.8426 21.4751C66.9493 22.0803 67.1154 22.5125 67.3409 22.7715C67.5685 23.0275 67.8606 23.1241 68.217 23.0613C68.5684 22.9993 68.8047 22.8175 68.9261 22.5158C69.05 22.2137 69.0642 21.7695 68.9688 21.1835L68.7633 20.0178ZM74.0705 20.0856C74.2175 20.9191 74.1843 21.5635 73.9711 22.0189C73.7579 22.4743 73.3487 22.7554 72.7434 22.8621C72.1459 22.9675 71.6686 22.848 71.3118 22.5037C70.9544 22.1568 70.7012 21.5906 70.5521 20.8051L70.3846 19.8549C70.2394 19.0317 70.2739 18.3949 70.488 17.9446C70.7022 17.4944 71.1131 17.2157 71.721 17.1085C72.3236 17.0022 72.8015 17.1176 73.1544 17.4547C73.5069 17.7892 73.758 18.3584 73.9077 19.1623L74.0705 20.0856ZM73.1872 19.2378C73.0809 18.6351 72.919 18.2115 72.7013 17.9669C72.4832 17.7198 72.1908 17.6285 71.8241 17.6932C71.4599 17.7574 71.2186 17.9414 71.1003 18.2452C70.982 18.549 70.9705 18.9861 71.0658 19.5563L71.2665 20.695C71.3733 21.3002 71.5394 21.7324 71.7649 21.9914C71.9925 22.2475 72.2845 22.3441 72.641 22.2812C72.9923 22.2193 73.2287 22.0374 73.35 21.7357C73.4739 21.4336 73.4881 20.9895 73.3927 20.4034L73.1872 19.2378ZM77.7424 21.9013L77.0268 22.0275L76.1905 17.2842L74.8485 18.0643L74.7346 17.418L76.6384 16.293L76.75 16.2733L77.7424 21.9013ZM82.9184 18.5254C83.0653 19.3589 83.0322 20.0034 82.819 20.4588C82.6058 20.9142 82.1965 21.1952 81.5913 21.302C80.9937 21.4073 80.5165 21.2879 80.1596 20.9436C79.8023 20.5967 79.5491 20.0305 79.4 19.245L79.2325 18.2948C79.0873 17.4716 79.1218 16.8348 79.3359 16.3845C79.5501 15.9343 79.961 15.6555 80.5688 15.5484C81.1715 15.4421 81.6493 15.5575 82.0023 15.8945C82.3548 16.229 82.6059 16.7983 82.7556 17.6022L82.9184 18.5254ZM82.0351 17.6777C81.9288 17.075 81.7669 16.6514 81.5492 16.4068C81.3311 16.1597 81.0387 16.0684 80.6719 16.1331C80.3078 16.1973 80.0665 16.3813 79.9482 16.6851C79.8299 16.9889 79.8184 17.4259 79.9136 17.9962L80.1144 19.1349C80.2211 19.7401 80.3872 20.1723 80.6127 20.4313C80.8403 20.6874 81.1324 20.7839 81.4889 20.7211C81.8402 20.6591 82.0766 20.4773 82.1979 20.1756C82.3218 19.8735 82.336 19.4294 82.2406 18.8433L82.0351 17.6777ZM86.5902 20.3412L85.8747 20.4674L85.0384 15.7241L83.6964 16.5042L83.5824 15.8579L85.4863 14.7328L85.5979 14.7132L86.5902 20.3412ZM91.0142 19.5611L90.2987 19.6873L89.4623 14.9441L88.1203 15.7241L88.0064 15.0778L89.9102 13.9528L90.0218 13.9331L91.0142 19.5611ZM95.4381 18.7811L94.7226 18.9072L93.8862 14.164L92.5443 14.944L92.4303 14.2978L94.3342 13.1727L94.4458 13.153L95.4381 18.7811ZM26.97 37.5295C27.1169 38.363 27.0838 39.0074 26.8706 39.4628C26.6574 39.9182 26.2481 40.1993 25.6429 40.306C25.0453 40.4114 24.5681 40.2919 24.2112 39.9476C23.8539 39.6008 23.6007 39.0346 23.4516 38.249L23.2841 37.2988C23.1389 36.4756 23.1734 35.8389 23.3875 35.3886C23.6017 34.9383 24.0126 34.6596 24.6204 34.5524C25.2231 34.4461 25.7009 34.5615 26.0539 34.8986C26.4064 35.2331 26.6575 35.8023 26.8072 36.6062L26.97 37.5295ZM26.0867 36.6817C25.9804 36.079 25.8185 35.6554 25.6008 35.4108C25.3827 35.1637 25.0903 35.0725 24.7235 35.1371C24.3594 35.2014 24.1181 35.3854 23.9998 35.6892C23.8815 35.993 23.87 36.43 23.9652 37.0002L24.166 38.1389C24.2727 38.7442 24.4388 39.1763 24.6643 39.4354C24.8919 39.6914 25.184 39.788 25.5405 39.7251C25.8918 39.6632 26.1282 39.4814 26.2495 39.1797C26.3734 38.8775 26.3876 38.4334 26.2922 37.8473L26.0867 36.6817ZM30.6418 39.3452L29.9263 39.4714L29.09 34.7282L27.748 35.5082L27.634 34.8619L29.5379 33.7369L29.6495 33.7172L30.6418 39.3452ZM35.8179 35.9694C35.9648 36.8029 35.9317 37.4473 35.7185 37.9027C35.5052 38.3581 35.096 38.6392 34.4908 38.7459C33.8932 38.8513 33.416 38.7318 33.0591 38.3875C32.7018 38.0406 32.4486 37.4744 32.2995 36.6889L32.132 35.7387C31.9868 34.9155 32.0213 34.2787 32.2354 33.8285C32.4495 33.3782 32.8605 33.0995 33.4683 32.9923C34.071 32.886 34.5488 33.0014 34.9018 33.3385C35.2543 33.673 35.5054 34.2422 35.6551 35.0461L35.8179 35.9694ZM34.9346 35.1216C34.8283 34.5189 34.6663 34.0953 34.4487 33.8507C34.2306 33.6036 33.9382 33.5124 33.5714 33.577C33.2072 33.6412 32.966 33.8252 32.8477 34.129C32.7294 34.4329 32.7179 34.8699 32.8131 35.4401L33.0139 36.5788C33.1206 37.1841 33.2867 37.6162 33.5122 37.8753C33.7398 38.1313 34.0319 38.2279 34.3883 38.165C34.7397 38.1031 34.976 37.9212 35.0974 37.6196C35.2213 37.3174 35.2355 36.8733 35.1401 36.2872L34.9346 35.1216ZM39.4897 37.7851L38.7742 37.9113L37.9378 33.1681L36.5959 33.9481L36.4819 33.3018L38.3858 32.1768L38.4973 32.1571L39.4897 37.7851ZM44.6657 34.4092C44.8127 35.2427 44.7796 35.8872 44.5664 36.3426C44.3531 36.798 43.9439 37.0791 43.3387 37.1858C42.7411 37.2911 42.2639 37.1717 41.907 36.8274C41.5497 36.4805 41.2965 35.9143 41.1474 35.1288L40.9798 34.1786C40.8347 33.3554 40.8692 32.7186 41.0833 32.2683C41.2974 31.8181 41.7084 31.5393 42.3162 31.4322C42.9189 31.3259 43.3967 31.4413 43.7497 31.7784C44.1022 32.1129 44.3533 32.6821 44.5029 33.486L44.6657 34.4092ZM43.7824 33.5615C43.6762 32.9588 43.5142 32.5352 43.2966 32.2906C43.0785 32.0435 42.786 31.9522 42.4193 32.0169C42.0551 32.0811 41.8139 32.2651 41.6956 32.5689C41.5773 32.8727 41.5657 33.3098 41.661 33.88L41.8618 35.0187C41.9685 35.6239 42.1346 36.0561 42.3601 36.3151C42.5877 36.5712 42.8797 36.6678 43.2362 36.6049C43.5876 36.5429 43.8239 36.3611 43.9452 36.0594C44.0691 35.7573 44.0834 35.3132 43.988 34.7271L43.7824 33.5615ZM49.0897 33.6292C49.2366 34.4627 49.2035 35.1071 48.9903 35.5625C48.7771 36.0179 48.3678 36.299 47.7626 36.4057C47.165 36.5111 46.6878 36.3916 46.331 36.0473C45.9736 35.7005 45.7204 35.1343 45.5713 34.3487L45.4038 33.3985C45.2586 32.5753 45.2931 31.9386 45.5072 31.4883C45.7214 31.038 46.1323 30.7593 46.7401 30.6521C47.3428 30.5458 47.8206 30.6612 48.1736 30.9983C48.5261 31.3328 48.7772 31.902 48.9269 32.7059L49.0897 33.6292ZM48.2064 32.7814C48.1001 32.1787 47.9382 31.7551 47.7205 31.5105C47.5024 31.2634 47.21 31.1722 46.8432 31.2368C46.4791 31.3011 46.2378 31.4851 46.1195 31.7889C46.0012 32.0927 45.9897 32.5297 46.0849 33.0999L46.2857 34.2386C46.3924 34.8439 46.5585 35.276 46.784 35.5351C47.0116 35.7911 47.3037 35.8877 47.6602 35.8248C48.0115 35.7629 48.2479 35.5811 48.3692 35.2794C48.4931 34.9772 48.5073 34.5331 48.4119 33.947L48.2064 32.7814ZM27.7807 48.9886L27.0652 49.1147L26.2288 44.3715L24.8869 45.1515L24.7729 44.5053L26.6768 43.3802L26.7884 43.3606L27.7807 48.9886ZM32.9567 45.6127C33.1037 46.4462 33.0706 47.0906 32.8574 47.546C32.6441 48.0015 32.2349 48.2825 31.6297 48.3892C31.0321 48.4946 30.5549 48.3751 30.198 48.0308C29.8407 47.684 29.5875 47.1178 29.4384 46.3322L29.2709 45.3821C29.1257 44.5588 29.1602 43.9221 29.3743 43.4718C29.5884 43.0215 29.9994 42.7428 30.6072 42.6356C31.2099 42.5294 31.6877 42.6447 32.0407 42.9818C32.3932 43.3163 32.6443 43.8855 32.794 44.6894L32.9567 45.6127ZM32.0735 44.7649C31.9672 44.1622 31.8052 43.7386 31.5876 43.494C31.3695 43.2469 31.0771 43.1557 30.7103 43.2203C30.3461 43.2846 30.1049 43.4686 29.9866 43.7724C29.8683 44.0762 29.8567 44.5132 29.952 45.0835L30.1528 46.2221C30.2595 46.8274 30.4256 47.2595 30.6511 47.5186C30.8787 47.7746 31.1708 47.8712 31.5272 47.8084C31.8786 47.7464 32.1149 47.5646 32.2363 47.2629C32.3602 46.9607 32.3744 46.5166 32.279 45.9305L32.0735 44.7649ZM36.6286 47.4285L35.9131 47.5546L35.0767 42.8114L33.7348 43.5914L33.6208 42.9451L35.5247 41.8201L35.6362 41.8004L36.6286 47.4285ZM41.8046 44.0526C41.9516 44.8861 41.9185 45.5305 41.7052 45.9859C41.492 46.4413 41.0828 46.7224 40.4775 46.8291C39.88 46.9345 39.4028 46.815 39.0459 46.4707C38.6886 46.1238 38.4354 45.5576 38.2863 44.7721L38.1187 43.8219C37.9736 42.9987 38.0081 42.3619 38.2222 41.9117C38.4363 41.4614 38.8473 41.1827 39.4551 41.0755C40.0578 40.9692 40.5356 41.0846 40.8885 41.4217C41.2411 41.7562 41.4921 42.3254 41.6418 43.1293L41.8046 44.0526ZM40.9213 43.2048C40.8151 42.6021 40.6531 42.1785 40.4355 41.9339C40.2174 41.6868 39.9249 41.5956 39.5582 41.6602C39.194 41.7244 38.9528 41.9085 38.8345 42.2123C38.7162 42.5161 38.7046 42.9531 38.7999 43.5233L39.0007 44.662C39.1074 45.2673 39.2735 45.6994 39.499 45.9585C39.7266 46.2145 40.0186 46.3111 40.3751 46.2482C40.7265 46.1863 40.9628 46.0045 41.0841 45.7028C41.208 45.4006 41.2223 44.9565 41.1269 44.3704L40.9213 43.2048ZM46.2286 43.2725C46.3755 44.106 46.3424 44.7505 46.1292 45.2059C45.916 45.6613 45.5067 45.9423 44.9015 46.0491C44.3039 46.1544 43.8267 46.0349 43.4698 45.6906C43.1125 45.3438 42.8593 44.7776 42.7102 43.9921L42.5427 43.0419C42.3975 42.2186 42.432 41.5819 42.6461 41.1316C42.8603 40.6813 43.2712 40.4026 43.879 40.2954C44.4817 40.1892 44.9595 40.3046 45.3125 40.6416C45.665 40.9761 45.9161 41.5453 46.0658 42.3493L46.2286 43.2725ZM45.3453 42.4247C45.239 41.8221 45.077 41.3984 44.8594 41.1539C44.6413 40.9067 44.3489 40.8155 43.9821 40.8802C43.618 40.9444 43.3767 41.1284 43.2584 41.4322C43.1401 41.736 43.1286 42.173 43.2238 42.7433L43.4246 43.882C43.5313 44.4872 43.6974 44.9194 43.9229 45.1784C44.1505 45.4344 44.4426 45.531 44.7991 45.4682C45.1504 45.4062 45.3868 45.2244 45.5081 44.9227C45.632 44.6206 45.6462 44.1764 45.5508 43.5904L45.3453 42.4247ZM49.9004 45.0883L49.1849 45.2144L48.3486 40.4712L47.0066 41.2512L46.8926 40.605L48.7965 39.4799L48.9081 39.4603L49.9004 45.0883ZM55.0765 41.7124C55.2234 42.5459 55.1903 43.1903 54.9771 43.6457C54.7638 44.1011 54.3546 44.3822 53.7494 44.4889C53.1518 44.5943 52.6746 44.4748 52.3177 44.1305C51.9604 43.7837 51.7072 43.2175 51.5581 42.4319L51.3906 41.4818C51.2454 40.6585 51.2799 40.0218 51.494 39.5715C51.7081 39.1212 52.1191 38.8425 52.7269 38.7353C53.3296 38.629 53.8074 38.7444 54.1604 39.0815C54.5129 39.416 54.764 39.9852 54.9137 40.7891L55.0765 41.7124ZM54.1932 40.8646C54.0869 40.2619 53.9249 39.8383 53.7073 39.5937C53.4892 39.3466 53.1968 39.2554 52.83 39.32C52.4658 39.3843 52.2246 39.5683 52.1063 39.8721C51.988 40.1759 51.9765 40.6129 52.0717 41.1832L52.2725 42.3218C52.3792 42.9271 52.5453 43.3592 52.7708 43.6183C52.9984 43.8743 53.2905 43.9709 53.6469 43.908C53.9983 43.8461 54.2346 43.6643 54.356 43.3626C54.4799 43.0604 54.4941 42.6163 54.3987 42.0302L54.1932 40.8646ZM58.7483 43.5282L58.0328 43.6543L57.1964 38.9111L55.8545 39.6911L55.7405 39.0448L57.6444 37.9198L57.7559 37.9001L58.7483 43.5282ZM63.9243 40.1523C64.0713 40.9858 64.0382 41.6302 63.825 42.0856C63.6117 42.541 63.2025 42.8221 62.5973 42.9288C61.9997 43.0342 61.5225 42.9147 61.1656 42.5704C60.8083 42.2235 60.5551 41.6573 60.406 40.8718L60.2384 39.9216C60.0933 39.0984 60.1278 38.4616 60.3419 38.0114C60.556 37.5611 60.967 37.2824 61.5748 37.1752C62.1775 37.0689 62.6553 37.1843 63.0083 37.5214C63.3608 37.8559 63.6119 38.4251 63.7615 39.229L63.9243 40.1523ZM63.041 39.3045C62.9348 38.7018 62.7728 38.2782 62.5552 38.0336C62.3371 37.7865 62.0446 37.6953 61.6779 37.7599C61.3137 37.8241 61.0725 38.0082 60.9542 38.312C60.8359 38.6158 60.8243 39.0528 60.9196 39.623L61.1204 40.7617C61.2271 41.367 61.3932 41.7991 61.6187 42.0582C61.8463 42.3142 62.1383 42.4108 62.4948 42.3479C62.8462 42.286 63.0825 42.1042 63.2038 41.8025C63.3277 41.5003 63.342 41.0562 63.2466 40.4701L63.041 39.3045ZM68.3483 39.3722C68.4952 40.2057 68.4621 40.8502 68.2489 41.3056C68.0357 41.761 67.6264 42.042 67.0212 42.1488C66.4236 42.2541 65.9464 42.1346 65.5895 41.7903C65.2322 41.4435 64.979 40.8773 64.8299 40.0918L64.6624 39.1416C64.5172 38.3183 64.5517 37.6816 64.7658 37.2313C64.98 36.781 65.3909 36.5023 65.9987 36.3951C66.6014 36.2889 67.0792 36.4043 67.4322 36.7413C67.7847 37.0758 68.0358 37.645 68.1855 38.449L68.3483 39.3722ZM67.465 38.5244C67.3587 37.9218 67.1968 37.4981 66.9791 37.2536C66.761 37.0064 66.4686 36.9152 66.1018 36.9799C65.7377 37.0441 65.4964 37.2281 65.3781 37.5319C65.2598 37.8357 65.2483 38.2727 65.3435 38.843L65.5443 39.9817C65.651 40.5869 65.8171 41.0191 66.0426 41.2781C66.2702 41.5341 66.5623 41.6307 66.9188 41.5679C67.2701 41.5059 67.5065 41.3241 67.6278 41.0224C67.7517 40.7203 67.7659 40.2761 67.6705 39.6901L67.465 38.5244ZM72.0201 41.188L71.3046 41.3141L70.4683 36.5709L69.1263 37.3509L69.0123 36.7047L70.9162 35.5796L71.0278 35.5599L72.0201 41.188ZM77.1962 37.8121C77.3431 38.6456 77.31 39.29 77.0968 39.7454C76.8836 40.2008 76.4743 40.4819 75.8691 40.5886C75.2715 40.694 74.7943 40.5745 74.4374 40.2302C74.0801 39.8834 73.8269 39.3172 73.6778 38.5316L73.5103 37.5815C73.3651 36.7582 73.3996 36.1215 73.6137 35.6712C73.8278 35.2209 74.2388 34.9422 74.8466 34.835C75.4493 34.7287 75.9271 34.8441 76.2801 35.1812C76.6326 35.5157 76.8837 36.0849 77.0334 36.8888L77.1962 37.8121ZM76.3129 36.9643C76.2066 36.3616 76.0446 35.938 75.827 35.6934C75.6089 35.4463 75.3165 35.3551 74.9497 35.4197C74.5856 35.484 74.3443 35.668 74.226 35.9718C74.1077 36.2756 74.0962 36.7126 74.1914 37.2829L74.3922 38.4215C74.4989 39.0268 74.665 39.4589 74.8905 39.718C75.1181 39.974 75.4102 40.0706 75.7666 40.0077C76.118 39.9458 76.3543 39.764 76.4757 39.4623C76.5996 39.1601 76.6138 38.716 76.5184 38.1299L76.3129 36.9643ZM81.6201 37.032C81.7671 37.8655 81.7339 38.51 81.5207 38.9654C81.3075 39.4208 80.8983 39.7019 80.293 39.8086C79.6955 39.9139 79.2182 39.7945 78.8614 39.4502C78.504 39.1033 78.2508 38.5371 78.1018 37.7516L77.9342 36.8014C77.789 35.9782 77.8235 35.3414 78.0377 34.8911C78.2518 34.4409 78.6628 34.1621 79.2706 34.055C79.8732 33.9487 80.3511 34.0641 80.704 34.4011C81.0565 34.7356 81.3076 35.3049 81.4573 36.1088L81.6201 37.032ZM80.7368 36.1843C80.6305 35.5816 80.4686 35.158 80.2509 34.9134C80.0328 34.6663 79.7404 34.575 79.3737 34.6397C79.0095 34.7039 78.7683 34.8879 78.6499 35.1917C78.5316 35.4955 78.5201 35.9325 78.6154 36.5028L78.8161 37.6415C78.9229 38.2467 79.089 38.6789 79.3145 38.9379C79.5421 39.194 79.8341 39.2905 80.1906 39.2277C80.5419 39.1657 80.7783 38.9839 80.8996 38.6822C81.0235 38.3801 81.0377 37.936 80.9423 37.3499L80.7368 36.1843ZM86.044 36.252C86.191 37.0855 86.1579 37.7299 85.9447 38.1853C85.7314 38.6407 85.3222 38.9218 84.717 39.0285C84.1194 39.1339 83.6422 39.0144 83.2853 38.6701C82.928 38.3232 82.6748 37.757 82.5257 36.9715L82.3581 36.0213C82.213 35.1981 82.2475 34.5613 82.4616 34.1111C82.6757 33.6608 83.0867 33.3821 83.6945 33.2749C84.2972 33.1686 84.775 33.284 85.128 33.6211C85.4805 33.9556 85.7316 34.5248 85.8812 35.3287L86.044 36.252ZM85.1607 35.4042C85.0545 34.8015 84.8925 34.3779 84.6749 34.1333C84.4568 33.8862 84.1643 33.795 83.7976 33.8596C83.4334 33.9238 83.1922 34.1079 83.0739 34.4117C82.9556 34.7155 82.944 35.1525 83.0393 35.7227L83.2401 36.8614C83.3468 37.4667 83.5129 37.8988 83.7384 38.1579C83.966 38.4139 84.2581 38.5105 84.6145 38.4476C84.9659 38.3857 85.2022 38.2039 85.3236 37.9022C85.4474 37.6 85.4617 37.1559 85.3663 36.5698L85.1607 35.4042ZM90.468 35.4719C90.6149 36.3054 90.5818 36.9499 90.3686 37.4053C90.1554 37.8607 89.7461 38.1417 89.1409 38.2485C88.5433 38.3538 88.0661 38.2343 87.7093 37.89C87.3519 37.5432 87.0987 36.977 86.9496 36.1915L86.7821 35.2413C86.6369 34.418 86.6714 33.7813 86.8855 33.331C87.0997 32.8807 87.5106 32.602 88.1184 32.4948C88.7211 32.3886 89.1989 32.504 89.5519 32.841C89.9044 33.1755 90.1555 33.7447 90.3052 34.5487L90.468 35.4719ZM89.5847 34.6241C89.4784 34.0215 89.3165 33.5978 89.0988 33.3533C88.8807 33.1061 88.5883 33.0149 88.2216 33.0796C87.8574 33.1438 87.6161 33.3278 87.4978 33.6316C87.3795 33.9354 87.368 34.3724 87.4632 34.9427L87.664 36.0814C87.7707 36.6866 87.9369 37.1188 88.1623 37.3778C88.3899 37.6338 88.682 37.7304 89.0385 37.6676C89.3898 37.6056 89.6262 37.4238 89.7475 37.1221C89.8714 36.82 89.8856 36.3758 89.7902 35.7898L89.5847 34.6241ZM94.1398 37.2877L93.4243 37.4138L92.588 32.6706L91.246 33.4506L91.132 32.8044L93.0359 31.6793L93.1475 31.6596L94.1398 37.2877ZM98.5638 36.5076L97.8483 36.6338L97.0119 31.8905L95.6699 32.6706L95.556 32.0243L97.4599 30.8993L97.5714 30.8796L98.5638 36.5076ZM29.3436 57.8518L28.628 57.978L27.7917 53.2348L26.4497 54.0148L26.3358 53.3685L28.2396 52.2435L28.3512 52.2238L29.3436 57.8518ZM33.7675 57.0718L33.052 57.1979L32.2156 52.4547L30.8737 53.2348L30.7597 52.5885L32.6636 51.4634L32.7751 51.4438L33.7675 57.0718ZM38.9435 53.6959C39.0905 54.5294 39.0574 55.1739 38.8441 55.6293C38.6309 56.0847 38.2217 56.3657 37.6164 56.4724C37.0189 56.5778 36.5417 56.4583 36.1848 56.114C35.8275 55.7672 35.5743 55.201 35.4252 54.4155L35.2576 53.4653C35.1125 52.642 35.147 52.0053 35.3611 51.555C35.5752 51.1047 35.9862 50.826 36.594 50.7188C37.1967 50.6126 37.6745 50.728 38.0274 51.065C38.3799 51.3995 38.631 51.9687 38.7807 52.7727L38.9435 53.6959ZM38.0602 52.8481C37.954 52.2454 37.792 51.8218 37.5744 51.5773C37.3562 51.3301 37.0638 51.2389 36.6971 51.3036C36.3329 51.3678 36.0917 51.5518 35.9734 51.8556C35.855 52.1594 35.8435 52.5964 35.9388 53.1667L36.1396 54.3054C36.2463 54.9106 36.4124 55.3427 36.6379 55.6018C36.8655 55.8578 37.1575 55.9544 37.514 55.8916C37.8654 55.8296 38.1017 55.6478 38.223 55.3461C38.3469 55.0439 38.3612 54.5998 38.2658 54.0137L38.0602 52.8481ZM42.6154 55.5117L41.8999 55.6378L41.0635 50.8946L39.7215 51.6746L39.6076 51.0284L41.5115 49.9033L41.623 49.8836L42.6154 55.5117ZM47.7914 52.1358C47.9384 52.9693 47.9052 53.6137 47.692 54.0691C47.4788 54.5245 47.0696 54.8056 46.4643 54.9123C45.8668 55.0177 45.3896 54.8982 45.0327 54.5539C44.6753 54.2071 44.4221 53.6409 44.2731 52.8553L44.1055 51.9051C43.9604 51.0819 43.9948 50.4452 44.209 49.9949C44.4231 49.5446 44.8341 49.2659 45.4419 49.1587C46.0446 49.0524 46.5224 49.1678 46.8753 49.5049C47.2278 49.8394 47.4789 50.4086 47.6286 51.2125L47.7914 52.1358ZM46.9081 51.288C46.8018 50.6853 46.6399 50.2617 46.4222 50.0171C46.2041 49.77 45.9117 49.6788 45.545 49.7434C45.1808 49.8077 44.9396 49.9917 44.8212 50.2955C44.7029 50.5993 44.6914 51.0363 44.7867 51.6065L44.9874 52.7452C45.0942 53.3505 45.2603 53.7826 45.4858 54.0417C45.7134 54.2977 46.0054 54.3943 46.3619 54.3314C46.7132 54.2695 46.9496 54.0877 47.0709 53.786C47.1948 53.4838 47.2091 53.0397 47.1136 52.4536L46.9081 51.288ZM52.2153 51.3557C52.3623 52.1892 52.3292 52.8337 52.116 53.2891C51.9027 53.7445 51.4935 54.0255 50.8883 54.1323C50.2907 54.2376 49.8135 54.1182 49.4566 53.7739C49.0993 53.427 48.8461 52.8608 48.697 52.0753L48.5295 51.1251C48.3843 50.3018 48.4188 49.6651 48.6329 49.2148C48.847 48.7645 49.258 48.4858 49.8658 48.3786C50.4685 48.2724 50.9463 48.3878 51.2993 48.7248C51.6518 49.0593 51.9029 49.6285 52.0525 50.4325L52.2153 51.3557ZM51.3321 50.5079C51.2258 49.9053 51.0638 49.4816 50.8462 49.2371C50.6281 48.9899 50.3357 48.8987 49.9689 48.9634C49.6047 49.0276 49.3635 49.2116 49.2452 49.5154C49.1269 49.8192 49.1153 50.2562 49.2106 50.8265L49.4114 51.9652C49.5181 52.5704 49.6842 53.0026 49.9097 53.2616C50.1373 53.5176 50.4294 53.6142 50.7858 53.5514C51.1372 53.4894 51.3735 53.3076 51.4949 53.0059C51.6187 52.7038 51.633 52.2596 51.5376 51.6736L51.3321 50.5079ZM30.9064 66.7151L30.1909 66.8413L29.3545 62.098L28.0125 62.8781L27.8986 62.2318L29.8025 61.1068L29.914 61.0871L30.9064 66.7151ZM36.0824 63.3392C36.2294 64.1727 36.1963 64.8172 35.983 65.2726C35.7698 65.728 35.3606 66.0091 34.7553 66.1158C34.1578 66.2211 33.6806 66.1017 33.3237 65.7574C32.9664 65.4105 32.7132 64.8443 32.5641 64.0588L32.3965 63.1086C32.2514 62.2854 32.2858 61.6486 32.5 61.1983C32.7141 60.7481 33.1251 60.4693 33.7329 60.3622C34.3356 60.2559 34.8134 60.3713 35.1663 60.7083C35.5188 61.0428 35.7699 61.6121 35.9196 62.416L36.0824 63.3392ZM35.1991 62.4915C35.0929 61.8888 34.9309 61.4652 34.7132 61.2206C34.4951 60.9735 34.2027 60.8822 33.836 60.9469C33.4718 61.0111 33.2306 61.1951 33.1123 61.4989C32.9939 61.8027 32.9824 62.2398 33.0777 62.81L33.2785 63.9487C33.3852 64.5539 33.5513 64.9861 33.7768 65.2451C34.0044 65.5012 34.2964 65.5977 34.6529 65.5349C35.0043 65.4729 35.2406 65.2911 35.3619 64.9894C35.4858 64.6873 35.5001 64.2432 35.4047 63.6571L35.1991 62.4915ZM39.7543 65.155L39.0388 65.2812L38.2024 60.5379L36.8604 61.318L36.7465 60.6717L38.6503 59.5466L38.7619 59.527L39.7543 65.155ZM44.9303 61.7791C45.0773 62.6126 45.0441 63.2571 44.8309 63.7125C44.6177 64.1679 44.2085 64.4489 43.6032 64.5557C43.0057 64.661 42.5284 64.5415 42.1716 64.1972C41.8142 63.8504 41.561 63.2842 41.4119 62.4987L41.2444 61.5485C41.0992 60.7252 41.1337 60.0885 41.3479 59.6382C41.562 59.1879 41.9729 58.9092 42.5808 58.802C43.1834 58.6958 43.6613 58.8112 44.0142 59.1482C44.3667 59.4827 44.6178 60.0519 44.7675 60.8559L44.9303 61.7791ZM44.047 60.9313C43.9407 60.3287 43.7788 59.905 43.5611 59.6605C43.343 59.4133 43.0506 59.3221 42.6839 59.3868C42.3197 59.451 42.0784 59.635 41.9601 59.9388C41.8418 60.2426 41.8303 60.6796 41.9256 61.2499L42.1263 62.3886C42.2331 62.9938 42.3992 63.426 42.6247 63.685C42.8523 63.941 43.1443 64.0376 43.5008 63.9748C43.8521 63.9128 44.0885 63.731 44.2098 63.4293C44.3337 63.1272 44.3479 62.683 44.2525 62.097L44.047 60.9313ZM48.6022 63.5949L47.8866 63.721L47.0503 58.9778L45.7083 59.7578L45.5944 59.1116L47.4982 57.9865L47.6098 57.9669L48.6022 63.5949ZM53.7782 60.219C53.9251 61.0525 53.892 61.6969 53.6788 62.1523C53.4656 62.6077 53.0563 62.8888 52.4511 62.9955C51.8535 63.1009 51.3763 62.9814 51.0195 62.6371C50.6621 62.2903 50.4089 61.7241 50.2598 60.9385L50.0923 59.9884C49.9471 59.1651 49.9816 58.5284 50.1957 58.0781C50.4099 57.6278 50.8208 57.3491 51.4286 57.2419C52.0313 57.1357 52.5091 57.251 52.8621 57.5881C53.2146 57.9226 53.4657 58.4918 53.6154 59.2957L53.7782 60.219ZM52.8949 59.3712C52.7886 58.7685 52.6267 58.3449 52.409 58.1003C52.1909 57.8532 51.8985 57.762 51.5317 57.8266C51.1676 57.8909 50.9263 58.0749 50.808 58.3787C50.6897 58.6825 50.6782 59.1195 50.7734 59.6898L50.9742 60.8284C51.0809 61.4337 51.247 61.8658 51.4725 62.1249C51.7001 62.3809 51.9922 62.4775 52.3487 62.4147C52.7 62.3527 52.9364 62.1709 53.0577 61.8692C53.1816 61.567 53.1958 61.1229 53.1004 60.5368L52.8949 59.3712ZM58.2021 59.4389C58.3491 60.2724 58.316 60.9169 58.1027 61.3723C57.8895 61.8277 57.4803 62.1088 56.875 62.2155C56.2775 62.3208 55.8003 62.2014 55.4434 61.8571C55.0861 61.5102 54.8329 60.944 54.6838 60.1585L54.5162 59.2083C54.3711 58.3851 54.4056 57.7483 54.6197 57.298C54.8338 56.8478 55.2448 56.569 55.8526 56.4619C56.4553 56.3556 56.9331 56.471 57.286 56.808C57.6385 57.1425 57.8896 57.7118 58.0393 58.5157L58.2021 59.4389ZM57.3188 58.5912C57.2126 57.9885 57.0506 57.5649 56.8329 57.3203C56.6148 57.0732 56.3224 56.9819 55.9557 57.0466C55.5915 57.1108 55.3503 57.2948 55.232 57.5986C55.1136 57.9024 55.1021 58.3395 55.1974 58.9097L55.3982 60.0484C55.5049 60.6536 55.671 61.0858 55.8965 61.3448C56.1241 61.6009 56.4161 61.6974 56.7726 61.6346C57.124 61.5726 57.3603 61.3908 57.4816 61.0891C57.6055 60.787 57.6198 60.3429 57.5244 59.7568L57.3188 58.5912ZM61.874 61.2547L61.1585 61.3809L60.3221 56.6376L58.9801 57.4177L58.8662 56.7714L60.7701 55.6463L60.8816 55.6267L61.874 61.2547ZM67.05 57.8788C67.197 58.7123 67.1638 59.3568 66.9506 59.8122C66.7374 60.2676 66.3282 60.5486 65.7229 60.6554C65.1254 60.7607 64.6482 60.6412 64.2913 60.2969C63.9339 59.9501 63.6807 59.3839 63.5317 58.5984L63.3641 57.6482C63.219 56.8249 63.2534 56.1882 63.4676 55.7379C63.6817 55.2876 64.0927 55.0089 64.7005 54.9017C65.3031 54.7955 65.781 54.9109 66.1339 55.2479C66.4864 55.5824 66.7375 56.1516 66.8872 56.9556L67.05 57.8788ZM66.1667 57.031C66.0604 56.4284 65.8985 56.0047 65.6808 55.7602C65.4627 55.513 65.1703 55.4218 64.8036 55.4865C64.4394 55.5507 64.1982 55.7347 64.0798 56.0385C63.9615 56.3423 63.95 56.7793 64.0453 57.3496L64.246 58.4883C64.3528 59.0935 64.5189 59.5257 64.7444 59.7847C64.972 60.0407 65.264 60.1373 65.6205 60.0745C65.9718 60.0125 66.2082 59.8307 66.3295 59.529C66.4534 59.2269 66.4676 58.7827 66.3722 58.1967L66.1667 57.031ZM71.4739 57.0988C71.6209 57.9323 71.5878 58.5767 71.3746 59.0321C71.1613 59.4875 70.7521 59.7686 70.1469 59.8753C69.5493 59.9807 69.0721 59.8612 68.7152 59.5169C68.3579 59.17 68.1047 58.6038 67.9556 57.8183L67.7881 56.8681C67.6429 56.0449 67.6774 55.4081 67.8915 54.9578C68.1056 54.5076 68.5166 54.2289 69.1244 54.1217C69.7271 54.0154 70.2049 54.1308 70.5579 54.4679C70.9104 54.8024 71.1615 55.3716 71.3111 56.1755L71.4739 57.0988ZM70.5907 56.251C70.4844 55.6483 70.3224 55.2247 70.1048 54.9801C69.8867 54.733 69.5943 54.6417 69.2275 54.7064C68.8633 54.7706 68.6221 54.9546 68.5038 55.2584C68.3855 55.5622 68.3739 55.9993 68.4692 56.5695L68.67 57.7082C68.7767 58.3134 68.9428 58.7456 69.1683 59.0046C69.3959 59.2607 69.688 59.3573 70.0444 59.2944C70.3958 59.2325 70.6321 59.0506 70.7535 58.7489C70.8773 58.4468 70.8916 58.0027 70.7962 57.4166L70.5907 56.251ZM75.8979 56.3187C76.0449 57.1522 76.0117 57.7966 75.7985 58.252C75.5853 58.7074 75.176 58.9885 74.5708 59.0952C73.9732 59.2006 73.496 59.0811 73.1392 58.7368C72.7818 58.39 72.5286 57.8238 72.3795 57.0382L72.212 56.0881C72.0668 55.2648 72.1013 54.6281 72.3154 54.1778C72.5296 53.7275 72.9405 53.4488 73.5483 53.3416C74.151 53.2353 74.6288 53.3507 74.9818 53.6878C75.3343 54.0223 75.5854 54.5915 75.7351 55.3954L75.8979 56.3187ZM75.0146 55.4709C74.9083 54.8682 74.7464 54.4446 74.5287 54.2C74.3106 53.9529 74.0182 53.8617 73.6515 53.9263C73.2873 53.9906 73.046 54.1746 72.9277 54.4784C72.8094 54.7822 72.7979 55.2192 72.8931 55.7895L73.0939 56.9281C73.2006 57.5334 73.3668 57.9655 73.5922 58.2246C73.8199 58.4806 74.1119 58.5772 74.4684 58.5143C74.8197 58.4524 75.0561 58.2706 75.1774 57.9689C75.3013 57.6667 75.3155 57.2226 75.2201 56.6365L75.0146 55.4709ZM79.5698 58.1345L78.8542 58.2606L78.0179 53.5174L76.6759 54.2974L76.5619 53.6511L78.4658 52.5261L78.5774 52.5064L79.5698 58.1345ZM84.7458 54.7586C84.8927 55.5921 84.8596 56.2365 84.6464 56.6919C84.4332 57.1473 84.0239 57.4284 83.4187 57.5351C82.8211 57.6405 82.3439 57.521 81.987 57.1767C81.6297 56.8298 81.3765 56.2636 81.2274 55.4781L81.0599 54.5279C80.9147 53.7047 80.9492 53.0679 81.1633 52.6177C81.3775 52.1674 81.7884 51.8887 82.3962 51.7815C82.9989 51.6752 83.4767 51.7906 83.8297 52.1277C84.1822 52.4622 84.4333 53.0314 84.583 53.8353L84.7458 54.7586ZM83.8625 53.9108C83.7562 53.3081 83.5942 52.8845 83.3766 52.6399C83.1585 52.3928 82.8661 52.3016 82.4993 52.3662C82.1352 52.4304 81.8939 52.6145 81.7756 52.9183C81.6573 53.2221 81.6458 53.6591 81.741 54.2293L81.9418 55.368C82.0485 55.9733 82.2146 56.4054 82.4401 56.6645C82.6677 56.9205 82.9598 57.0171 83.3163 56.9542C83.6676 56.8923 83.9039 56.7105 84.0253 56.4088C84.1492 56.1066 84.1634 55.6625 84.068 55.0764L83.8625 53.9108ZM88.4176 56.5743L87.7021 56.7005L86.8657 51.9573L85.5238 52.7373L85.4098 52.091L87.3137 50.966L87.4253 50.9463L88.4176 56.5743ZM92.8416 55.7943L92.1261 55.9204L91.2897 51.1772L89.9477 51.9572L89.8338 51.311L91.7376 50.1859L91.8492 50.1662L92.8416 55.7943ZM97.2655 55.0142L96.55 55.1404L95.7136 50.3971L94.3717 51.1772L94.2577 50.5309L96.1616 49.4059L96.2731 49.3862L97.2655 55.0142ZM102.442 51.6383C102.588 52.4718 102.555 53.1163 102.342 53.5717C102.129 54.0271 101.72 54.3081 101.114 54.4149C100.517 54.5202 100.04 54.4008 99.6828 54.0565C99.3255 53.7096 99.0723 53.1434 98.9232 52.3579L98.7556 51.4077C98.6105 50.5845 98.645 49.9477 98.8591 49.4974C99.0732 49.0472 99.4842 48.7684 100.092 48.6613C100.695 48.555 101.172 48.6704 101.525 49.0074C101.878 49.3419 102.129 49.9112 102.279 50.7151L102.442 51.6383ZM101.558 50.7906C101.452 50.1879 101.29 49.7643 101.072 49.5197C100.854 49.2726 100.562 49.1813 100.195 49.246C99.8309 49.3102 99.5897 49.4942 99.4714 49.798C99.3531 50.1018 99.3415 50.5388 99.4368 51.1091L99.6376 52.2478C99.7443 52.853 99.9104 53.2852 100.136 53.5442C100.363 53.8003 100.656 53.8968 101.012 53.834C101.363 53.772 101.6 53.5902 101.721 53.2885C101.845 52.9864 101.859 52.5423 101.764 51.9562L101.558 50.7906ZM32.4692 75.5784L31.7537 75.7046L30.9173 70.9613L29.5754 71.7414L29.4614 71.0951L31.3653 69.97L31.4769 69.9504L32.4692 75.5784ZM37.6452 72.2025C37.7922 73.036 37.7591 73.6805 37.5459 74.1359C37.3326 74.5913 36.9234 74.8723 36.3182 74.979C35.7206 75.0844 35.2434 74.9649 34.8865 74.6206C34.5292 74.2738 34.276 73.7076 34.1269 72.9221L33.9594 71.9719C33.8142 71.1486 33.8487 70.5119 34.0628 70.0616C34.2769 69.6113 34.6879 69.3326 35.2957 69.2254C35.8984 69.1192 36.3762 69.2346 36.7292 69.5716C37.0817 69.9061 37.3328 70.4753 37.4825 71.2793L37.6452 72.2025ZM36.762 71.3547C36.6557 70.752 36.4937 70.3284 36.2761 70.0839C36.058 69.8367 35.7656 69.7455 35.3988 69.8102C35.0346 69.8744 34.7934 70.0584 34.6751 70.3622C34.5568 70.666 34.5452 71.103 34.6405 71.6733L34.8413 72.812C34.948 73.4172 35.1141 73.8493 35.3396 74.1084C35.5672 74.3644 35.8593 74.461 36.2157 74.3982C36.5671 74.3362 36.8034 74.1544 36.9248 73.8527C37.0487 73.5505 37.0629 73.1064 36.9675 72.5203L36.762 71.3547ZM41.3171 74.0183L40.6016 74.1444L39.7652 69.4012L38.4233 70.1812L38.3093 69.535L40.2132 68.4099L40.3247 68.3902L41.3171 74.0183ZM46.4931 70.6424C46.6401 71.4759 46.607 72.1203 46.3937 72.5757C46.1805 73.0311 45.7713 73.3122 45.166 73.4189C44.5685 73.5243 44.0913 73.4048 43.7344 73.0605C43.3771 72.7137 43.1239 72.1475 42.9748 71.3619L42.8072 70.4117C42.6621 69.5885 42.6966 68.9518 42.9107 68.5015C43.1248 68.0512 43.5358 67.7725 44.1436 67.6653C44.7463 67.559 45.2241 67.6744 45.577 68.0115C45.9296 68.346 46.1806 68.9152 46.3303 69.7191L46.4931 70.6424ZM45.6098 69.7946C45.5036 69.1919 45.3416 68.7683 45.124 68.5237C44.9059 68.2766 44.6134 68.1854 44.2467 68.25C43.8825 68.3143 43.6413 68.4983 43.523 68.8021C43.4047 69.1059 43.3931 69.5429 43.4884 70.1131L43.6892 71.2518C43.7959 71.8571 43.962 72.2892 44.1875 72.5483C44.4151 72.8043 44.7071 72.9009 45.0636 72.838C45.415 72.7761 45.6513 72.5943 45.7726 72.2926C45.8965 71.9904 45.9108 71.5463 45.8154 70.9602L45.6098 69.7946ZM50.9171 69.8623C51.064 70.6958 51.0309 71.3403 50.8177 71.7957C50.6045 72.2511 50.1952 72.5321 49.59 72.6389C48.9924 72.7442 48.5152 72.6248 48.1583 72.2805C47.801 71.9336 47.5478 71.3674 47.3987 70.5819L47.2312 69.6317C47.086 68.8084 47.1205 68.1717 47.3346 67.7214C47.5488 67.2711 47.9597 66.9924 48.5675 66.8852C49.1702 66.779 49.648 66.8944 50.001 67.2314C50.3535 67.5659 50.6046 68.1351 50.7543 68.9391L50.9171 69.8623ZM50.0338 69.0146C49.9275 68.4119 49.7656 67.9882 49.5479 67.7437C49.3298 67.4965 49.0374 67.4053 48.6706 67.47C48.3065 67.5342 48.0652 67.7182 47.9469 68.022C47.8286 68.3258 47.8171 68.7628 47.9123 69.3331L48.1131 70.4718C48.2198 71.077 48.3859 71.5092 48.6114 71.7682C48.839 72.0242 49.1311 72.1208 49.4876 72.058C49.8389 71.996 50.0753 71.8142 50.1966 71.5125C50.3205 71.2104 50.3347 70.7662 50.2393 70.1802L50.0338 69.0146ZM55.341 69.0823C55.488 69.9158 55.4549 70.5602 55.2416 71.0156C55.0284 71.471 54.6192 71.7521 54.0139 71.8588C53.4164 71.9642 52.9392 71.8447 52.5823 71.5004C52.225 71.1535 51.9717 70.5873 51.8227 69.8018L51.6551 68.8516C51.51 68.0284 51.5444 67.3916 51.7586 66.9414C51.9727 66.4911 52.3837 66.2124 52.9915 66.1052C53.5942 65.9989 54.072 66.1143 54.4249 66.4514C54.7774 66.7859 55.0285 67.3551 55.1782 68.159L55.341 69.0823ZM54.4577 68.2345C54.3515 67.6318 54.1895 67.2082 53.9718 66.9636C53.7537 66.7165 53.4613 66.6253 53.0946 66.6899C52.7304 66.7541 52.4892 66.9381 52.3709 67.2419C52.2525 67.5458 52.241 67.9828 52.3363 68.553L52.5371 69.6917C52.6438 70.297 52.8099 70.7291 53.0354 70.9882C53.263 71.2442 53.555 71.3408 53.9115 71.2779C54.2629 71.216 54.4992 71.0341 54.6205 70.7325C54.7444 70.4303 54.7587 69.9862 54.6632 69.4001L54.4577 68.2345ZM34.0321 84.4417L33.3165 84.5678L32.4802 79.8246L31.1382 80.6046L31.0243 79.9583L32.9281 78.8333L33.0397 78.8136L34.0321 84.4417ZM39.2081 81.0658C39.355 81.8993 39.3219 82.5437 39.1087 82.9991C38.8955 83.4545 38.4862 83.7356 37.881 83.8423C37.2834 83.9477 36.8062 83.8282 36.4494 83.4839C36.092 83.137 35.8388 82.5708 35.6897 81.7853L35.5222 80.8351C35.377 80.0119 35.4115 79.3751 35.6256 78.9249C35.8398 78.4746 36.2507 78.1959 36.8585 78.0887C37.4612 77.9824 37.939 78.0978 38.292 78.4349C38.6445 78.7694 38.8956 79.3386 39.0453 80.1425L39.2081 81.0658ZM38.3248 80.218C38.2185 79.6153 38.0566 79.1917 37.8389 78.9471C37.6208 78.7 37.3284 78.6088 36.9616 78.6734C36.5975 78.7376 36.3562 78.9217 36.2379 79.2255C36.1196 79.5293 36.1081 79.9663 36.2033 80.5365L36.4041 81.6752C36.5108 82.2805 36.677 82.7126 36.9024 82.9717C37.13 83.2277 37.4221 83.3243 37.7786 83.2614C38.1299 83.1995 38.3663 83.0177 38.4876 82.716C38.6115 82.4138 38.6257 81.9697 38.5303 81.3836L38.3248 80.218ZM42.8799 82.8815L42.1644 83.0077L41.3281 78.2645L39.9861 79.0445L39.8721 78.3982L41.776 77.2732L41.8876 77.2535L42.8799 82.8815ZM48.056 79.5057C48.2029 80.3392 48.1698 80.9836 47.9566 81.439C47.7434 81.8944 47.3341 82.1755 46.7289 82.2822C46.1313 82.3876 45.6541 82.2681 45.2972 81.9238C44.9399 81.5769 44.6867 81.0107 44.5376 80.2252L44.3701 79.275C44.2249 78.4518 44.2594 77.815 44.4735 77.3647C44.6876 76.9145 45.0986 76.6358 45.7064 76.5286C46.3091 76.4223 46.7869 76.5377 47.1399 76.8748C47.4924 77.2093 47.7435 77.7785 47.8932 78.5824L48.056 79.5057ZM47.1727 78.6579C47.0664 78.0552 46.9044 77.6316 46.6868 77.387C46.4687 77.1399 46.1763 77.0486 45.8095 77.1133C45.4454 77.1775 45.2041 77.3615 45.0858 77.6653C44.9675 77.9691 44.956 78.4062 45.0512 78.9764L45.252 80.1151C45.3587 80.7203 45.5248 81.1525 45.7503 81.4115C45.9779 81.6676 46.27 81.7642 46.6265 81.7013C46.9778 81.6394 47.2141 81.4575 47.3355 81.1558C47.4594 80.8537 47.4736 80.4096 47.3782 79.8235L47.1727 78.6579ZM51.7278 81.3214L51.0123 81.4476L50.1759 76.7043L48.834 77.4844L48.72 76.8381L50.6239 75.7131L50.7355 75.6934L51.7278 81.3214ZM56.9038 77.9455C57.0508 78.779 57.0177 79.4235 56.8045 79.8789C56.5912 80.3343 56.182 80.6154 55.5768 80.7221C54.9792 80.8274 54.502 80.708 54.1451 80.3637C53.7878 80.0168 53.5346 79.4506 53.3855 78.6651L53.218 77.7149C53.0728 76.8917 53.1073 76.2549 53.3214 75.8046C53.5355 75.3544 53.9465 75.0756 54.5543 74.9685C55.157 74.8622 55.6348 74.9776 55.9878 75.3146C56.3403 75.6491 56.5914 76.2184 56.741 77.0223L56.9038 77.9455ZM56.0206 77.0978C55.9143 76.4951 55.7523 76.0715 55.5347 75.8269C55.3166 75.5798 55.0242 75.4885 54.6574 75.5532C54.2932 75.6174 54.052 75.8014 53.9337 76.1052C53.8154 76.409 53.8038 76.8461 53.8991 77.4163L54.0999 78.555C54.2066 79.1602 54.3727 79.5924 54.5982 79.8514C54.8258 80.1075 55.1179 80.204 55.4743 80.1412C55.8257 80.0792 56.062 79.8974 56.1834 79.5957C56.3073 79.2936 56.3215 78.8495 56.2261 78.2634L56.0206 77.0978ZM61.3278 77.1655C61.4748 77.999 61.4416 78.6434 61.2284 79.0988C61.0152 79.5542 60.6059 79.8353 60.0007 79.942C59.4031 80.0474 58.9259 79.9279 58.5691 79.5836C58.2117 79.2367 57.9585 78.6705 57.8094 77.885L57.6419 76.9348C57.4967 76.1116 57.5312 75.4748 57.7453 75.0246C57.9595 74.5743 58.3704 74.2956 58.9783 74.1884C59.5809 74.0821 60.0588 74.1975 60.4117 74.5346C60.7642 74.8691 61.0153 75.4383 61.165 76.2422L61.3278 77.1655ZM60.4445 76.3177C60.3382 75.715 60.1763 75.2914 59.9586 75.0468C59.7405 74.7997 59.4481 74.7085 59.0814 74.7731C58.7172 74.8373 58.4759 75.0214 58.3576 75.3252C58.2393 75.629 58.2278 76.066 58.323 76.6362L58.5238 77.7749C58.6305 78.3802 58.7967 78.8123 59.0221 79.0714C59.2498 79.3274 59.5418 79.424 59.8983 79.3611C60.2496 79.2992 60.486 79.1174 60.6073 78.8157C60.7312 78.5135 60.7454 78.0694 60.65 77.4833L60.4445 76.3177ZM65.7517 76.3854C65.8987 77.2189 65.8656 77.8634 65.6523 78.3188C65.4391 78.7742 65.0299 79.0552 64.4246 79.162C63.8271 79.2673 63.3499 79.1478 62.993 78.8035C62.6357 78.4567 62.3825 77.8905 62.2334 77.105L62.0658 76.1548C61.9207 75.3315 61.9552 74.6948 62.1693 74.2445C62.3834 73.7942 62.7944 73.5155 63.4022 73.4083C64.0049 73.3021 64.4827 73.4175 64.8356 73.7545C65.1881 74.089 65.4392 74.6582 65.5889 75.4622L65.7517 76.3854ZM64.8684 75.5376C64.7622 74.935 64.6002 74.5113 64.3826 74.2668C64.1645 74.0196 63.872 73.9284 63.5053 73.9931C63.1411 74.0573 62.8999 74.2413 62.7816 74.5451C62.6633 74.8489 62.6517 75.2859 62.747 75.8562L62.9478 76.9949C63.0545 77.6001 63.2206 78.0323 63.4461 78.2913C63.6737 78.5473 63.9657 78.6439 64.3222 78.5811C64.6736 78.5191 64.9099 78.3373 65.0312 78.0356C65.1551 77.7335 65.1694 77.2893 65.074 76.7033L64.8684 75.5376ZM70.1757 75.6054C70.3226 76.4389 70.2895 77.0833 70.0763 77.5387C69.8631 77.9941 69.4538 78.2752 68.8486 78.3819C68.251 78.4873 67.7738 78.3678 67.4169 78.0235C67.0596 77.6766 66.8064 77.1104 66.6573 76.3249L66.4898 75.3747C66.3446 74.5515 66.3791 73.9147 66.5932 73.4644C66.8074 73.0142 67.2183 72.7355 67.8261 72.6283C68.4288 72.522 68.9066 72.6374 69.2596 72.9745C69.6121 73.309 69.8632 73.8782 70.0129 74.6821L70.1757 75.6054ZM69.2924 74.7576C69.1861 74.1549 69.0241 73.7313 68.8065 73.4867C68.5884 73.2396 68.296 73.1483 67.9292 73.213C67.5651 73.2772 67.3238 73.4612 67.2055 73.765C67.0872 74.0688 67.0757 74.5059 67.1709 75.0761L67.3717 76.2148C67.4784 76.82 67.6445 77.2522 67.87 77.5112C68.0976 77.7673 68.3897 77.8639 68.7462 77.801C69.0975 77.7391 69.3339 77.5572 69.4552 77.2555C69.5791 76.9534 69.5933 76.5093 69.4979 75.9232L69.2924 74.7576ZM74.5996 74.8253C74.7466 75.6588 74.7135 76.3032 74.5002 76.7586C74.287 77.214 73.8778 77.4951 73.2725 77.6018C72.675 77.7072 72.1978 77.5877 71.8409 77.2434C71.4836 76.8966 71.2303 76.3304 71.0813 75.5448L70.9137 74.5947C70.7686 73.7714 70.803 73.1347 71.0172 72.6844C71.2313 72.2341 71.6423 71.9554 72.2501 71.8482C72.8528 71.7419 73.3306 71.8573 73.6835 72.1944C74.036 72.5289 74.2871 73.0981 74.4368 73.902L74.5996 74.8253ZM73.7163 73.9775C73.61 73.3748 73.4481 72.9512 73.2304 72.7066C73.0123 72.4595 72.7199 72.3683 72.3532 72.4329C71.989 72.4972 71.7478 72.6812 71.6294 72.985C71.5111 73.2888 71.4996 73.7258 71.5949 74.2961L71.7957 75.4347C71.9024 76.04 72.0685 76.4721 72.294 76.7312C72.5216 76.9872 72.8136 77.0838 73.1701 77.0209C73.5215 76.959 73.7578 76.7772 73.8791 76.4755C74.003 76.1733 74.0173 75.7292 73.9218 75.1431L73.7163 73.9775ZM79.0236 74.0452C79.1705 74.8787 79.1374 75.5232 78.9242 75.9786C78.7109 76.434 78.3017 76.7151 77.6965 76.8218C77.0989 76.9271 76.6217 76.8077 76.2648 76.4634C75.9075 76.1165 75.6543 75.5503 75.5052 74.7648L75.3377 73.8146C75.1925 72.9914 75.227 72.3546 75.4411 71.9043C75.6552 71.4541 76.0662 71.1753 76.674 71.0682C77.2767 70.9619 77.7545 71.0773 78.1075 71.4143C78.46 71.7488 78.7111 72.3181 78.8608 73.122L79.0236 74.0452ZM78.1403 73.1975C78.034 72.5948 77.872 72.1712 77.6544 71.9266C77.4363 71.6795 77.1439 71.5882 76.7771 71.6529C76.4129 71.7171 76.1717 71.9011 76.0534 72.2049C75.9351 72.5087 75.9236 72.9458 76.0188 73.516L76.2196 74.6547C76.3263 75.2599 76.4924 75.6921 76.7179 75.9511C76.9455 76.2072 77.2376 76.3037 77.594 76.2409C77.9454 76.1789 78.1817 75.9971 78.3031 75.6954C78.427 75.3933 78.4412 74.9492 78.3458 74.3631L78.1403 73.1975ZM82.6954 75.861L81.9799 75.9872L81.1435 71.2439L79.8016 72.024L79.6876 71.3777L81.5915 70.2526L81.703 70.233L82.6954 75.861ZM87.1194 75.0809L86.4038 75.2071L85.5675 70.4639L84.2255 71.2439L84.1116 70.5976L86.0154 69.4726L86.127 69.4529L87.1194 75.0809ZM91.5433 74.3009L90.8278 74.427L89.9914 69.6838L88.6494 70.4638L88.5355 69.8176L90.4394 68.6925L90.5509 68.6728L91.5433 74.3009ZM96.7193 70.925C96.8663 71.7585 96.8332 72.4029 96.6199 72.8583C96.4067 73.3137 95.9975 73.5948 95.3922 73.7015C94.7947 73.8069 94.3175 73.6874 93.9606 73.3431C93.6033 72.9963 93.3501 72.4301 93.201 71.6445L93.0334 70.6944C92.8883 69.8711 92.9227 69.2344 93.1369 68.7841C93.351 68.3338 93.762 68.0551 94.3698 67.9479C94.9725 67.8416 95.4503 67.957 95.8032 68.2941C96.1557 68.6286 96.4068 69.1978 96.5565 70.0017L96.7193 70.925ZM95.836 70.0772C95.7298 69.4745 95.5678 69.0509 95.3501 68.8063C95.132 68.5592 94.8396 68.468 94.4729 68.5326C94.1087 68.5969 93.8675 68.7809 93.7492 69.0847C93.6308 69.3885 93.6193 69.8255 93.7146 70.3958L93.9154 71.5344C94.0221 72.1397 94.1882 72.5718 94.4137 72.8309C94.6413 73.0869 94.9333 73.1835 95.2898 73.1206C95.6412 73.0587 95.8775 72.8769 95.9988 72.5752C96.1227 72.273 96.137 71.8289 96.0416 71.2428L95.836 70.0772ZM100.391 72.7408L99.6757 72.8669L98.8393 68.1237L97.4973 68.9037L97.3834 68.2574L99.2873 67.1324L99.3988 67.1127L100.391 72.7408ZM105.567 69.3649C105.714 70.1984 105.681 70.8428 105.468 71.2982C105.255 71.7536 104.845 72.0347 104.24 72.1414C103.643 72.2468 103.165 72.1273 102.808 71.783C102.451 71.4361 102.198 70.8699 102.049 70.0844L101.881 69.1342C101.736 68.311 101.771 67.6742 101.985 67.224C102.199 66.7737 102.61 66.495 103.218 66.3878C103.82 66.2815 104.298 66.3969 104.651 66.734C105.004 67.0685 105.255 67.6377 105.404 68.4416L105.567 69.3649ZM104.684 68.5171C104.578 67.9144 104.416 67.4908 104.198 67.2462C103.98 66.9991 103.688 66.9079 103.321 66.9725C102.957 67.0367 102.715 67.2208 102.597 67.5246C102.479 67.8284 102.467 68.2654 102.562 68.8356L102.763 69.9743C102.87 70.5796 103.036 71.0117 103.262 71.2708C103.489 71.5268 103.781 71.6234 104.138 71.5605C104.489 71.4986 104.725 71.3168 104.847 71.0151C104.971 70.7129 104.985 70.2688 104.889 69.6827L104.684 68.5171ZM35.5949 93.3049L34.8794 93.4311L34.043 88.6879L32.701 89.4679L32.5871 88.8216L34.491 87.6966L34.6025 87.6769L35.5949 93.3049ZM40.7709 89.9291C40.9179 90.7625 40.8848 91.407 40.6715 91.8624C40.4583 92.3178 40.0491 92.5989 39.4438 92.7056C38.8463 92.8109 38.3691 92.6915 38.0122 92.3472C37.6549 92.0003 37.4017 91.4341 37.2526 90.6486L37.085 89.6984C36.9399 88.8752 36.9743 88.2384 37.1885 87.7881C37.4026 87.3379 37.8136 87.0591 38.4214 86.952C39.0241 86.8457 39.5019 86.9611 39.8548 87.2982C40.2073 87.6327 40.4584 88.2019 40.6081 89.0058L40.7709 89.9291ZM39.8876 89.0813C39.7814 88.4786 39.6194 88.055 39.4017 87.8104C39.1836 87.5633 38.8912 87.472 38.5245 87.5367C38.1603 87.6009 37.9191 87.7849 37.8008 88.0887C37.6824 88.3925 37.6709 88.8296 37.7662 89.3998L37.967 90.5385C38.0737 91.1437 38.2398 91.5759 38.4653 91.8349C38.6929 92.091 38.9849 92.1876 39.3414 92.1247C39.6928 92.0627 39.9291 91.8809 40.0504 91.5792C40.1743 91.2771 40.1886 90.833 40.0932 90.2469L39.8876 89.0813ZM45.1949 89.149C45.3418 89.9825 45.3087 90.6269 45.0955 91.0823C44.8823 91.5377 44.473 91.8188 43.8678 91.9255C43.2702 92.0309 42.793 91.9114 42.4361 91.5671C42.0788 91.2203 41.8256 90.6541 41.6765 89.8685L41.509 88.9183C41.3638 88.0951 41.3983 87.4584 41.6124 87.0081C41.8265 86.5578 42.2375 86.2791 42.8453 86.1719C43.448 86.0656 43.9258 86.181 44.2788 86.5181C44.6313 86.8526 44.8824 87.4218 45.0321 88.2257L45.1949 89.149ZM44.3116 88.3012C44.2053 87.6985 44.0433 87.2749 43.8257 87.0303C43.6076 86.7832 43.3152 86.692 42.9484 86.7566C42.5843 86.8209 42.343 87.0049 42.2247 87.3087C42.1064 87.6125 42.0949 88.0495 42.1901 88.6197L42.3909 89.7584C42.4976 90.3637 42.6637 90.7958 42.8892 91.0549C43.1168 91.3109 43.4089 91.4075 43.7653 91.3446C44.1167 91.2827 44.353 91.1009 44.4744 90.7992C44.5983 90.497 44.6125 90.0529 44.5171 89.4668L44.3116 88.3012ZM49.6188 88.3689C49.7658 89.2024 49.7326 89.8469 49.5194 90.3023C49.3062 90.7577 48.897 91.0387 48.2917 91.1455C47.6942 91.2508 47.2169 91.1314 46.8601 90.7871C46.5027 90.4402 46.2495 89.874 46.1004 89.0885L45.9329 88.1383C45.7877 87.315 45.8222 86.6783 46.0364 86.228C46.2505 85.7777 46.6615 85.499 47.2693 85.3918C47.8719 85.2856 48.3498 85.401 48.7027 85.738C49.0552 86.0725 49.3063 86.6417 49.456 87.4457L49.6188 88.3689ZM48.7355 87.5212C48.6292 86.9185 48.4673 86.4948 48.2496 86.2503C48.0315 86.0031 47.7391 85.9119 47.3724 85.9766C47.0082 86.0408 46.7669 86.2248 46.6486 86.5286C46.5303 86.8324 46.5188 87.2694 46.6141 87.8397L46.8148 88.9784C46.9216 89.5836 47.0877 90.0158 47.3132 90.2748C47.5408 90.5308 47.8328 90.6274 48.1893 90.5646C48.5406 90.5026 48.777 90.3208 48.8983 90.0191C49.0222 89.717 49.0364 89.2728 48.941 88.6868L48.7355 87.5212ZM53.2907 90.1847L52.5751 90.3108L51.7388 85.5676L50.3968 86.3477L50.2829 85.7014L52.1867 84.5763L52.2983 84.5567L53.2907 90.1847ZM58.4667 86.8088C58.6136 87.6423 58.5805 88.2868 58.3673 88.7422C58.1541 89.1976 57.7448 89.4786 57.1396 89.5853C56.542 89.6907 56.0648 89.5712 55.708 89.2269C55.3506 88.8801 55.0974 88.3139 54.9483 87.5284L54.7808 86.5782C54.6356 85.7549 54.6701 85.1182 54.8842 84.6679C55.0984 84.2176 55.5093 83.9389 56.1171 83.8317C56.7198 83.7255 57.1976 83.8409 57.5506 84.1779C57.9031 84.5124 58.1542 85.0816 58.3039 85.8856L58.4667 86.8088ZM57.5834 85.961C57.4771 85.3583 57.3152 84.9347 57.0975 84.6902C56.8794 84.443 56.587 84.3518 56.2202 84.4165C55.8561 84.4807 55.6148 84.6647 55.4965 84.9685C55.3782 85.2723 55.3667 85.7093 55.4619 86.2796L55.6627 87.4183C55.7694 88.0235 55.9355 88.4556 56.161 88.7147C56.3886 88.9707 56.6807 89.0673 57.0372 89.0045C57.3885 88.9425 57.6249 88.7607 57.7462 88.459C57.8701 88.1568 57.8843 87.7127 57.7889 87.1266L57.5834 85.961ZM37.9098 99.5724C38.0568 100.406 38.0236 101.05 37.8104 101.506C37.5972 101.961 37.188 102.242 36.5827 102.349C35.9852 102.454 35.508 102.335 35.1511 101.991C34.7938 101.644 34.5405 101.077 34.3915 100.292L34.2239 99.3417C34.0788 98.5185 34.1132 97.8817 34.3274 97.4315C34.5415 96.9812 34.9525 96.7025 35.5603 96.5953C36.163 96.489 36.6408 96.6044 36.9937 96.9415C37.3462 97.276 37.5973 97.8452 37.747 98.6491L37.9098 99.5724ZM37.0265 98.7246C36.9202 98.1219 36.7583 97.6983 36.5406 97.4537C36.3225 97.2066 36.0301 97.1154 35.6634 97.18C35.2992 97.2442 35.058 97.4283 34.9396 97.7321C34.8213 98.0359 34.8098 98.4729 34.9051 99.0431L35.1058 100.182C35.2126 100.787 35.3787 101.219 35.6042 101.478C35.8318 101.734 36.1238 101.831 36.4803 101.768C36.8316 101.706 37.068 101.524 37.1893 101.223C37.3132 100.92 37.3275 100.476 37.232 99.8902L37.0265 98.7246ZM41.5817 101.388L40.8661 101.514L40.0298 96.7711L38.6878 97.5511L38.5739 96.9048L40.4777 95.7798L40.5893 95.7601L41.5817 101.388ZM46.7577 98.0123C46.9047 98.8458 46.8715 99.4902 46.6583 99.9456C46.4451 100.401 46.0359 100.682 45.4306 100.789C44.8331 100.894 44.3558 100.775 43.999 100.43C43.6416 100.084 43.3884 99.5173 43.2393 98.7318L43.0718 97.7816C42.9266 96.9584 42.9611 96.3216 43.1752 95.8714C43.3894 95.4211 43.8003 95.1424 44.4082 95.0352C45.0108 94.9289 45.4887 95.0443 45.8416 95.3814C46.1941 95.7159 46.4452 96.2851 46.5949 97.089L46.7577 98.0123ZM45.8744 97.1645C45.7681 96.5618 45.6062 96.1382 45.3885 95.8936C45.1704 95.6465 44.878 95.5552 44.5113 95.6199C44.1471 95.6841 43.9058 95.8681 43.7875 96.1719C43.6692 96.4757 43.6577 96.9128 43.7529 97.483L43.9537 98.6217C44.0605 99.2269 44.2266 99.6591 44.4521 99.9181C44.6797 100.174 44.9717 100.271 45.3282 100.208C45.6795 100.146 45.9159 99.9641 46.0372 99.6624C46.1611 99.3603 46.1753 98.9162 46.0799 98.3301L45.8744 97.1645ZM50.4296 99.828L49.714 99.9542L48.8777 95.2109L47.5357 95.991L47.4217 95.3447L49.3256 94.2197L49.4372 94.2L50.4296 99.828ZM55.6056 96.4521C55.7525 97.2856 55.7194 97.9301 55.5062 98.3855C55.293 98.8409 54.8837 99.122 54.2785 99.2287C53.6809 99.334 53.2037 99.2146 52.8468 98.8703C52.4895 98.5234 52.2363 97.9572 52.0872 97.1717L51.9197 96.2215C51.7745 95.3983 51.809 94.7615 52.0231 94.3112C52.2373 93.861 52.6482 93.5822 53.256 93.4751C53.8587 93.3688 54.3365 93.4842 54.6895 93.8212C55.042 94.1557 55.2931 94.725 55.4428 95.5289L55.6056 96.4521ZM54.7223 95.6044C54.616 95.0017 54.4541 94.5781 54.2364 94.3335C54.0183 94.0864 53.7259 93.9951 53.3591 94.0598C52.995 94.124 52.7537 94.308 52.6354 94.6118C52.5171 94.9156 52.5056 95.3527 52.6008 95.9229L52.8016 97.0616C52.9083 97.6668 53.0744 98.099 53.2999 98.358C53.5275 98.6141 53.8196 98.7106 54.1761 98.6478C54.5274 98.5858 54.7638 98.404 54.8851 98.1023C55.009 97.8002 55.0232 97.3561 54.9278 96.77L54.7223 95.6044ZM59.2774 98.2679L58.5619 98.3941L57.7256 93.6508L56.3836 94.4309L56.2696 93.7846L58.1735 92.6595L58.2851 92.6399L59.2774 98.2679ZM64.4535 94.892C64.6004 95.7255 64.5673 96.37 64.3541 96.8254C64.1408 97.2808 63.7316 97.5618 63.1264 97.6686C62.5288 97.7739 62.0516 97.6544 61.6947 97.3101C61.3374 96.9633 61.0842 96.3971 60.9351 95.6116L60.7676 94.6614C60.6224 93.8381 60.6569 93.2014 60.871 92.7511C61.0851 92.3008 61.4961 92.0221 62.1039 91.9149C62.7066 91.8087 63.1844 91.9241 63.5374 92.2611C63.8899 92.5956 64.141 93.1648 64.2907 93.9688L64.4535 94.892ZM63.5702 94.0442C63.4639 93.4416 63.3019 93.0179 63.0843 92.7734C62.8662 92.5262 62.5738 92.435 62.207 92.4997C61.8428 92.5639 61.6016 92.7479 61.4833 93.0517C61.365 93.3555 61.3535 93.7925 61.4487 94.3628L61.6495 95.5015C61.7562 96.1067 61.9223 96.5389 62.1478 96.7979C62.3754 97.0539 62.6675 97.1505 63.0239 97.0877C63.3753 97.0257 63.6116 96.8439 63.733 96.5422C63.8569 96.2401 63.8711 95.7959 63.7757 95.2099L63.5702 94.0442ZM68.8774 94.112C69.0244 94.9455 68.9912 95.5899 68.778 96.0453C68.5648 96.5007 68.1556 96.7818 67.5503 96.8885C66.9528 96.9939 66.4755 96.8744 66.1187 96.5301C65.7613 96.1832 65.5081 95.617 65.359 94.8315L65.1915 93.8813C65.0463 93.0581 65.0808 92.4213 65.295 91.971C65.5091 91.5208 65.92 91.2421 66.5279 91.1349C67.1305 91.0286 67.6084 91.144 67.9613 91.4811C68.3138 91.8156 68.5649 92.3848 68.7146 93.1887L68.8774 94.112ZM67.9941 93.2642C67.8878 92.6615 67.7259 92.2379 67.5082 91.9933C67.2901 91.7462 66.9977 91.6549 66.631 91.7196C66.2668 91.7838 66.0255 91.9678 65.9072 92.2716C65.7889 92.5754 65.7774 93.0125 65.8727 93.5827L66.0734 94.7214C66.1802 95.3266 66.3463 95.7588 66.5718 96.0178C66.7994 96.2739 67.0914 96.3705 67.4479 96.3076C67.7992 96.2457 68.0356 96.0638 68.1569 95.7621C68.2808 95.46 68.295 95.0159 68.1996 94.4298L67.9941 93.2642ZM72.5493 95.9277L71.8337 96.0539L70.9974 91.3106L69.6554 92.0907L69.5415 91.4444L71.4453 90.3194L71.5569 90.2997L72.5493 95.9277ZM77.7253 92.5518C77.8722 93.3853 77.8391 94.0298 77.6259 94.4852C77.4127 94.9406 77.0034 95.2217 76.3982 95.3284C75.8006 95.4337 75.3234 95.3143 74.9666 94.97C74.6092 94.6231 74.356 94.0569 74.2069 93.2714L74.0394 92.3212C73.8942 91.498 73.9287 90.8612 74.1428 90.4109C74.357 89.9607 74.7679 89.6819 75.3757 89.5748C75.9784 89.4685 76.4562 89.5839 76.8092 89.9209C77.1617 90.2554 77.4128 90.8247 77.5625 91.6286L77.7253 92.5518ZM76.842 91.7041C76.7357 91.1014 76.5738 90.6778 76.3561 90.4332C76.138 90.1861 75.8456 90.0948 75.4788 90.1595C75.1147 90.2237 74.8734 90.4077 74.7551 90.7115C74.6368 91.0153 74.6253 91.4524 74.7205 92.0226L74.9213 93.1613C75.028 93.7665 75.1941 94.1987 75.4196 94.4577C75.6472 94.7138 75.9393 94.8103 76.2958 94.7475C76.6471 94.6855 76.8835 94.5037 77.0048 94.202C77.1287 93.8999 77.1429 93.4558 77.0475 92.8697L76.842 91.7041ZM82.1492 91.7718C82.2962 92.6053 82.2631 93.2497 82.0498 93.7051C81.8366 94.1605 81.4274 94.4416 80.8221 94.5483C80.2246 94.6537 79.7474 94.5342 79.3905 94.1899C79.0332 93.843 78.78 93.2768 78.6309 92.4913L78.4633 91.5411C78.3182 90.7179 78.3527 90.0811 78.5668 89.6309C78.7809 89.1806 79.1919 88.9019 79.7997 88.7947C80.4024 88.6884 80.8802 88.8038 81.2331 89.1409C81.5856 89.4754 81.8367 90.0446 81.9864 90.8485L82.1492 91.7718ZM81.2659 90.924C81.1597 90.3213 80.9977 89.8977 80.78 89.6531C80.5619 89.406 80.2695 89.3148 79.9028 89.3794C79.5386 89.4436 79.2974 89.6277 79.1791 89.9315C79.0607 90.2353 79.0492 90.6723 79.1445 91.2425L79.3453 92.3812C79.452 92.9865 79.6181 93.4186 79.8436 93.6777C80.0712 93.9337 80.3632 94.0303 80.7197 93.9674C81.0711 93.9055 81.3074 93.7237 81.4287 93.422C81.5526 93.1198 81.5669 92.6757 81.4715 92.0896L81.2659 90.924ZM86.5732 90.9917C86.7201 91.8252 86.687 92.4697 86.4738 92.9251C86.2606 93.3805 85.8513 93.6615 85.2461 93.7683C84.6485 93.8736 84.1713 93.7541 83.8144 93.4098C83.4571 93.063 83.2039 92.4968 83.0548 91.7113L82.8873 90.7611C82.7421 89.9378 82.7766 89.3011 82.9907 88.8508C83.2048 88.4005 83.6158 88.1218 84.2236 88.0146C84.8263 87.9084 85.3041 88.0238 85.6571 88.3608C86.0096 88.6953 86.2607 89.2645 86.4104 90.0685L86.5732 90.9917ZM85.6899 90.1439C85.5836 89.5413 85.4216 89.1176 85.204 88.8731C84.9859 88.6259 84.6935 88.5347 84.3267 88.5994C83.9626 88.6636 83.7213 88.8476 83.603 89.1514C83.4847 89.4552 83.4732 89.8922 83.5684 90.4625L83.7692 91.6012C83.8759 92.2064 84.042 92.6386 84.2675 92.8976C84.4951 93.1536 84.7872 93.2502 85.1437 93.1874C85.495 93.1254 85.7313 92.9436 85.8527 92.6419C85.9766 92.3398 85.9908 91.8956 85.8954 91.3096L85.6899 90.1439ZM90.245 92.8075L89.5295 92.9336L88.6931 88.1904L87.3512 88.9704L87.2372 88.3242L89.1411 87.1991L89.2527 87.1794L90.245 92.8075ZM95.421 89.4316C95.568 90.2651 95.5349 90.9095 95.3217 91.3649C95.1084 91.8203 94.6992 92.1014 94.094 92.2081C93.4964 92.3135 93.0192 92.194 92.6623 91.8497C92.305 91.5029 92.0518 90.9367 91.9027 90.1511L91.7352 89.201C91.59 88.3777 91.6245 87.741 91.8386 87.2907C92.0527 86.8404 92.4637 86.5617 93.0715 86.4545C93.6742 86.3482 94.152 86.4636 94.505 86.8007C94.8575 87.1352 95.1086 87.7044 95.2582 88.5083L95.421 89.4316ZM94.5378 88.5838C94.4315 87.9811 94.2695 87.5575 94.0519 87.3129C93.8338 87.0658 93.5413 86.9746 93.1746 87.0392C92.8104 87.1035 92.5692 87.2875 92.4509 87.5913C92.3326 87.8951 92.321 88.3321 92.4163 88.9024L92.6171 90.041C92.7238 90.6463 92.8899 91.0784 93.1154 91.3375C93.343 91.5935 93.6351 91.6901 93.9915 91.6272C94.3429 91.5653 94.5792 91.3835 94.7006 91.0818C94.8244 90.7796 94.8387 90.3355 94.7433 89.7494L94.5378 88.5838ZM99.0929 91.2474L98.3774 91.3735L97.541 86.6303L96.1991 87.4103L96.0851 86.764L97.989 85.639L98.1005 85.6193L99.0929 91.2474ZM104.269 87.8715C104.416 88.705 104.383 89.3494 104.17 89.8048C103.956 90.2602 103.547 90.5413 102.942 90.648C102.344 90.7534 101.867 90.6339 101.51 90.2896C101.153 89.9427 100.9 89.3765 100.751 88.591L100.583 87.6408C100.438 86.8176 100.472 86.1808 100.686 85.7306C100.901 85.2803 101.312 85.0016 101.919 84.8944C102.522 84.7881 103 84.9035 103.353 85.2406C103.705 85.5751 103.956 86.1443 104.106 86.9482L104.269 87.8715ZM103.386 87.0237C103.279 86.421 103.117 85.9974 102.9 85.7528C102.682 85.5057 102.389 85.4145 102.022 85.4791C101.658 85.5433 101.417 85.7274 101.299 86.0312C101.18 86.335 101.169 86.772 101.264 87.3422L101.465 88.4809C101.572 89.0862 101.738 89.5183 101.963 89.7774C102.191 90.0334 102.483 90.13 102.839 90.0671C103.191 90.0052 103.427 89.8234 103.548 89.5217C103.672 89.2195 103.687 88.7754 103.591 88.1893L103.386 87.0237ZM107.941 89.6872L107.225 89.8134L106.389 85.0702L105.047 85.8502L104.933 85.2039L106.837 84.0789L106.948 84.0592L107.941 89.6872ZM39.4726 108.436C39.6196 109.269 39.5865 109.914 39.3733 110.369C39.16 110.824 38.7508 111.105 38.1456 111.212C37.548 111.318 37.0708 111.198 36.7139 110.854C36.3566 110.507 36.1034 109.941 35.9543 109.155L35.7867 108.205C35.6416 107.382 35.6761 106.745 35.8902 106.295C36.1043 105.844 36.5153 105.566 37.1231 105.459C37.7258 105.352 38.2036 105.468 38.5566 105.805C38.9091 106.139 39.1602 106.708 39.3098 107.512L39.4726 108.436ZM38.5893 107.588C38.4831 106.985 38.3211 106.562 38.1035 106.317C37.8854 106.07 37.5929 105.979 37.2262 106.043C36.862 106.108 36.6208 106.292 36.5025 106.595C36.3842 106.899 36.3726 107.336 36.4679 107.906L36.6687 109.045C36.7754 109.65 36.9415 110.082 37.167 110.342C37.3946 110.598 37.6867 110.694 38.0431 110.631C38.3945 110.569 38.6308 110.388 38.7522 110.086C38.876 109.784 38.8903 109.34 38.7949 108.753L38.5893 107.588ZM43.1445 110.251L42.429 110.378L41.5926 105.634L40.2507 106.414L40.1367 105.768L42.0406 104.643L42.1521 104.623L43.1445 110.251ZM48.3205 106.876C48.4675 107.709 48.4344 108.353 48.2211 108.809C48.0079 109.264 47.5987 109.545 46.9934 109.652C46.3959 109.757 45.9187 109.638 45.5618 109.294C45.2045 108.947 44.9513 108.381 44.8022 107.595L44.6346 106.645C44.4895 105.822 44.524 105.185 44.7381 104.735C44.9522 104.284 45.3632 104.006 45.971 103.898C46.5737 103.792 47.0515 103.908 47.4044 104.245C47.7569 104.579 48.008 105.148 48.1577 105.952L48.3205 106.876ZM47.4372 106.028C47.331 105.425 47.169 105.001 46.9514 104.757C46.7332 104.51 46.4408 104.419 46.0741 104.483C45.7099 104.547 45.4687 104.731 45.3504 105.035C45.232 105.339 45.2205 105.776 45.3158 106.346L45.5166 107.485C45.6233 108.09 45.7894 108.522 46.0149 108.781C46.2425 109.037 46.5345 109.134 46.891 109.071C47.2424 109.009 47.4787 108.827 47.6 108.526C47.7239 108.224 47.7382 107.779 47.6428 107.193L47.4372 106.028ZM51.9924 108.691L51.2769 108.817L50.4405 104.074L49.0985 104.854L48.9846 104.208L50.8885 103.083L51 103.063L51.9924 108.691ZM57.1684 105.315C57.3154 106.149 57.2822 106.793 57.069 107.249C56.8558 107.704 56.4466 107.985 55.8413 108.092C55.2438 108.197 54.7666 108.078 54.4097 107.734C54.0523 107.387 53.7991 106.82 53.6501 106.035L53.4825 105.085C53.3374 104.262 53.3718 103.625 53.586 103.175C53.8001 102.724 54.2111 102.446 54.8189 102.338C55.4216 102.232 55.8994 102.347 56.2523 102.685C56.6048 103.019 56.8559 103.588 57.0056 104.392L57.1684 105.315ZM56.2851 104.468C56.1788 103.865 56.0169 103.441 55.7992 103.197C55.5811 102.95 55.2887 102.858 54.922 102.923C54.5578 102.987 54.3166 103.171 54.1982 103.475C54.0799 103.779 54.0684 104.216 54.1637 104.786L54.3644 105.925C54.4712 106.53 54.6373 106.962 54.8628 107.221C55.0904 107.477 55.3824 107.574 55.7389 107.511C56.0902 107.449 56.3266 107.267 56.4479 106.966C56.5718 106.663 56.5861 106.219 56.4906 105.633L56.2851 104.468ZM61.5923 104.535C61.7393 105.369 61.7062 106.013 61.493 106.469C61.2797 106.924 60.8705 107.205 60.2653 107.312C59.6677 107.417 59.1905 107.298 58.8336 106.953C58.4763 106.607 58.2231 106.04 58.074 105.255L57.9065 104.305C57.7613 103.481 57.7958 102.845 58.0099 102.394C58.224 101.944 58.635 101.665 59.2428 101.558C59.8455 101.452 60.3233 101.567 60.6763 101.904C61.0288 102.239 61.2799 102.808 61.4296 103.612L61.5923 104.535ZM60.7091 103.688C60.6028 103.085 60.4408 102.661 60.2232 102.417C60.0051 102.17 59.7127 102.078 59.3459 102.143C58.9817 102.207 58.7405 102.391 58.6222 102.695C58.5039 102.999 58.4923 103.436 58.5876 104.006L58.7884 105.145C58.8951 105.75 59.0612 106.182 59.2867 106.441C59.5143 106.697 59.8064 106.794 60.1628 106.731C60.5142 106.669 60.7505 106.487 60.8719 106.186C60.9958 105.883 61.01 105.439 60.9146 104.853L60.7091 103.688Z" fill="white"/>
<rect x="71.9814" y="28.7429" width="2.79756" height="25.5262" transform="rotate(-10 71.9814 28.7429)" fill="white"/>
<rect width="1.98547" height="13.8354" transform="matrix(0.68179 -0.731547 0.74298 0.669313 77.2627 42.5836)" fill="white"/>
<rect width="1.98547" height="13.8354" transform="matrix(0.890877 0.454244 -0.469254 0.883063 83.1224 26.7785)" fill="white"/>
<rect x="75.5237" y="28.1183" width="1.59861" height="7.85421" transform="rotate(-10 75.5237 28.1183)" fill="white"/>
<rect x="78.5924" y="45.5219" width="1.59861" height="7.85421" transform="rotate(-10 78.5924 45.5219)" fill="white"/>
<rect width="1.58837" height="15.8119" transform="matrix(0.68179 -0.731547 0.74298 0.669313 78.5227 40.5236)" fill="white"/>
<rect width="1.58838" height="15.8119" transform="matrix(0.890877 0.454244 -0.469255 0.883063 85.8939 26.6885)" fill="white"/>
<rect x="59.3555" y="31.9473" width="1.56254" height="11.8645" transform="rotate(-10 59.3555 31.9473)" fill="white"/>
<rect x="69.028" y="30.2418" width="1.56254" height="11.8645" transform="rotate(-10 69.028 30.2418)" fill="white"/>
<rect width="1.53196" height="12.2035" transform="matrix(0.894355 -0.447358 0.559108 0.829095 59.4766 32.5111)" fill="white"/>
<rect width="1.53196" height="12.2035" transform="matrix(0.993424 0.114491 -0.241823 0.970321 69.1239 30.3663)" fill="white"/>
<rect width="0.875405" height="4.69365" transform="matrix(0.993424 0.114491 -0.241823 0.970321 67.2064 33.3432)" fill="white"/>
<rect width="0.875405" height="4.69365" transform="matrix(0.894355 -0.447358 0.559108 0.829095 62.9518 34.3469)" fill="white"/>
<rect width="2.85335" height="27.761" transform="matrix(0.871649 -0.490131 0.510076 0.860129 38.5868 23.5015)" fill="white"/>
<rect width="2.85335" height="27.761" transform="matrix(0.871649 -0.490131 0.510076 0.860129 41.134 21.4485)" fill="white"/>
<rect x="50.7882" y="20.4208" width="2.86496" height="25.6668" transform="rotate(-10 50.7882 20.4208)" fill="white"/>
<rect x="54.0126" y="19.8522" width="1.63712" height="25.6668" transform="rotate(-10 54.0126 19.8522)" fill="white"/>
<rect x="36.2781" y="22.9794" width="1.63712" height="25.6668" transform="rotate(-10 36.2781 22.9794)" fill="white"/>
<rect x="38.2933" y="22.624" width="2.86496" height="25.6668" transform="rotate(-10 38.2933 22.624)" fill="white"/>
<rect width="0.962259" height="2.40813" transform="matrix(-0.984808 0.173648 0.173648 0.984808 100.16 30.621)" fill="white"/>
<rect width="2.40689" height="14.4413" transform="matrix(0.573154 -0.819448 0.818856 0.573999 86.9375 24.9005)" fill="white"/>
<rect width="1.20344" height="7.22067" transform="matrix(0.573154 -0.819448 0.818856 0.573999 89.5212 28.4709)" fill="white"/>
<rect width="1.20344" height="7.22067" transform="matrix(0.818856 0.573999 -0.573154 0.819448 95.4026 32.438)" fill="white"/>
<rect width="2.40689" height="14.4413" transform="matrix(0.818856 0.573999 -0.573154 0.819448 98.3658 30.9374)" fill="white"/>
<rect width="0.962259" height="2.40813" transform="matrix(0.984808 -0.173648 -0.173648 -0.984808 27.5889 45.7397)" fill="white"/>
<rect width="2.40689" height="14.4413" transform="matrix(-0.573154 0.819448 -0.818856 -0.573999 40.8114 51.4603)" fill="white"/>
<rect width="1.20344" height="7.22067" transform="matrix(-0.573154 0.819448 -0.818856 -0.573999 38.2275 47.8898)" fill="white"/>
<rect width="1.20344" height="7.22067" transform="matrix(-0.818856 -0.573999 0.573154 -0.819448 32.3462 43.9227)" fill="white"/>
<rect width="2.40689" height="14.4413" transform="matrix(-0.818856 -0.573999 0.573154 -0.819448 29.3832 45.4233)" fill="white"/>
</svg>
